# Blender v2.78 (sub 0) OBJ File: ''
# www.blender.org
mtllib cube.mtl
o Cube.001
v 1.313473 0.960638 -1.091696
v 1.000000 0.162527 1.000000
v -1.000000 0.716974 1.000000
v -1.000000 0.057413 -1.000000
v 1.000000 2.057413 -0.999999
v -1.000000 2.057413 -1.000000
v -1.128939 1.119709 0.588730
v 0.676627 1.617502 1.189685
vt 1.0000 0.0000
vt 0.0000 1.0000
vt 0.0000 0.0000
vt 1.0000 0.0000
vt 0.0000 1.0000
vt 0.0000 0.0000
vt 1.0000 1.0000
vt 0.0000 1.0000
vt 1.0000 0.0000
vt 0.0000 1.0000
vt 0.0000 0.0000
vt 1.0000 0.0000
vt 0.0000 0.0000
vt 1.0000 0.0000
vt 0.0000 1.0000
vt 1.0000 1.0000
vt 1.0000 1.0000
vt 1.0000 0.0000
vt 1.0000 1.0000
vt 1.0000 1.0000
vn 0.0747 -0.9970 -0.0223
vn 0.0556 -0.9984 -0.0031
vn 0.3379 -0.8951 -0.2909
vn -0.1756 0.9305 0.3214
vn -0.1838 0.9270 0.3270
vn -0.0000 0.9804 0.1970
vn 0.9525 0.2302 0.1996
vn 0.9562 0.2063 0.2075
vn 0.9590 0.1852 0.2144
vn -0.1133 0.0017 0.9936
vn -0.3019 0.3777 0.8753
vn -0.0381 -0.1375 0.9898
vn -0.9896 -0.1432 0.0154
vn -0.9976 -0.0517 -0.0464
vn -0.9696 -0.2322 0.0766
vn -0.0194 0.0426 -0.9989
vn -0.0284 0.0235 -0.9993
vn 0.0000 0.0833 -0.9965
vn -0.2546 -0.9184 0.3029
vn -0.3732 0.8119 0.4489
vn 0.9479 0.2549 0.1912
vn -0.3967 0.5906 0.7027
vn -0.9967 0.0000 -0.0809
vn -0.0396 0.0000 -0.9992
usemtl Material.001
s 1
f 2/1/1 4/2/2 1/3/3
f 6/4/4 8/5/5 5/6/6
f 1/3/7 8/7/8 2/8/9
f 8/9/10 3/10/11 2/11/12
f 7/12/13 4/2/14 3/13/15
f 1/14/16 6/15/17 5/6/18
f 2/1/1 3/16/19 4/2/2
f 6/4/4 7/17/20 8/5/5
f 1/3/7 5/18/21 8/7/8
f 8/9/10 7/17/22 3/10/11
f 7/12/13 6/19/23 4/2/14
f 1/14/16 4/20/24 6/15/17
